{
  "accessors": [
    {
      "bufferView": 2,
      "componentType": 5126,
      "count": 10020,
      "max": [
        1.7198221683502197,
        1.1007131338119507,
        1.9082064628601074
      ],
      "min": [
        -1.6909841299057007,
        -0.912289023399353,
        -0.006195947527885437
      ],
      "type": "VEC3"
    },
    {
      "bufferView": 2,
      "byteOffset": 120240,
      "componentType": 5126,
      "count": 10020,
      "max": [
        0.9999831914901733,
        0.999984085559845,
        0.9999977946281433
      ],
      "min": [
        -0.9999955892562866,
        -0.9999874234199524,
        -0.9998360872268677
      ],
      "type": "VEC3"
    },
    {
      "bufferView": 3,
      "componentType": 5126,
      "count": 10020,
      "max": [
        0.9999568462371826,
        0.9998995065689087,
        0.9999942779541016,
        1.0
      ],
      "min": [
        -0.9999017715454102,
        -0.9999908804893494,
        -0.999997615814209,
        1.0
      ],
      "type": "VEC4"
    },
    {
      "bufferView": 1,
      "componentType": 5126,
      "count": 10020,
      "max": [
        0.9999709129333496,
        0.9999052286148071
      ],
      "min": [
        5.0917427870444953e-05,
        0.00013763015158474445
      ],
      "type": "VEC2"
    },
    {
      "bufferView": 1,
      "byteOffset": 80160,
      "componentType": 5126,
      "count": 10020,
      "max": [
        0.9979976415634155,
        0.9985775351524353
      ],
      "min": [
        0.0,
        0.0
      ],
      "type": "VEC2"
    },
    {
      "bufferView": 0,
      "componentType": 5125,
      "count": 10044,
      "type": "SCALAR"
    }
  ],
  "asset": {
    "extras": {
      "author": "Meerschaum Digital (https://sketchfab.com/meerschaumdigital)",
      "license": "CC-BY-4.0 (http://creativecommons.org/licenses/by/4.0/)",
      "source": "https://sketchfab.com/3d-models/stack-of-bricks-game-ready-2k-pbr-1a9092ab6cb243d990fddad116f04825",
      "title": "Stack Of Bricks (Game Ready / 2K PBR)"
    },
    "generator": "Sketchfab-11.64.0",
    "version": "2.0"
  },
  "bufferViews": [
    {
      "buffer": 0,
      "byteLength": 40176,
      "name": "floatBufferViews",
      "target": 34963
    },
    {
      "buffer": 0,
      "byteLength": 160320,
      "byteOffset": 40176,
      "byteStride": 8,
      "name": "floatBufferViews",
      "target": 34962
    },
    {
      "buffer": 0,
      "byteLength": 240480,
      "byteOffset": 200496,
      "byteStride": 12,
      "name": "floatBufferViews",
      "target": 34962
    },
    {
      "buffer": 0,
      "byteLength": 160320,
      "byteOffset": 440976,
      "byteStride": 16,
      "name": "floatBufferViews",
      "target": 34962
    }
  ],
  "buffers": [
    {
      "byteLength": 601296,
      "uri": "scene.bin"
    }
  ],
  "images": [
    {
      "uri": "textures/Material.001_baseColor.jpeg"
    },
    {
      "uri": "textures/Material.001_metallicRoughness.png"
    },
    {
      "uri": "textures/Material.001_normal.jpeg"
    }
  ],
  "materials": [
    {
      "doubleSided": true,
      "name": "Material.001",
      "normalTexture": {
        "index": 2
      },
      "occlusionTexture": {
        "index": 1
      },
      "pbrMetallicRoughness": {
        "baseColorTexture": {
          "index": 0
        },
        "metallicFactor": 0.0,
        "metallicRoughnessTexture": {
          "index": 1
        },
        "roughnessFactor": 0.9
      }
    }
  ],
  "meshes": [
    {
      "name": "Stack of Bricks_Material.001_0",
      "primitives": [
        {
          "attributes": {
            "NORMAL": 1,
            "POSITION": 0,
            "TANGENT": 2,
            "TEXCOORD_0": 3,
            "TEXCOORD_1": 4
          },
          "indices": 5,
          "material": 0,
          "mode": 4
        }
      ]
    }
  ],
  "nodes": [
    {
      "children": [
        1
      ],
      "matrix": [
        -1.0,
        -6.290011496532519e-32,
        2.832769343193999e-16,
        0.0,
        2.832769343193999e-16,
        -2.220446049250313e-16,
        1.0,
        0.0,
        0.0,
        1.0,
        2.220446049250313e-16,
        0.0,
        0.028853774070739746,
        1.4843924138495082e-07,
        -0.18842366337776184,
        1.0
      ],
      "name": "Sketchfab_model"
    },
    {
      "children": [
        2
      ],
      "matrix": [
        0.009999999776482582,
        0.0,
        0.0,
        0.0,
        0.0,
        0.0,
        0.009999999776482582,
        0.0,
        0.0,
        -0.009999999776482582,
        0.0,
        0.0,
        0.0,
        0.0,
        0.0,
        1.0
      ],
      "name": "63c644afac0b4a569397119e7a11b85d.fbx"
    },
    {
      "children": [
        3
      ],
      "name": "RootNode"
    },
    {
      "children": [
        4
      ],
      "matrix": [
        100.0,
        0.0,
        0.0,
        0.0,
        0.0,
        -1.629206793918314e-05,
        -99.99999999999868,
        0.0,
        0.0,
        99.99999999999868,
        -1.629206793918314e-05,
        0.0,
        0.0,
        0.0,
        0.0,
        1.0
      ],
      "name": "Stack of Bricks"
    },
    {
      "mesh": 0,
      "name": "Stack of Bricks_Material.001_0"
    }
  ],
  "samplers": [
    {
      "magFilter": 9729,
      "minFilter": 9987,
      "wrapS": 10497,
      "wrapT": 10497
    }
  ],
  "scene": 0,
  "scenes": [
    {
      "name": "Sketchfab_Scene",
      "nodes": [
        0
      ]
    }
  ],
  "textures": [
    {
      "sampler": 0,
      "source": 0
    },
    {
      "sampler": 0,
      "source": 1
    },
    {
      "sampler": 0,
      "source": 2
    }
  ]
}
